<svg width="32" height="30" viewBox="0 0 32 30" fill="none" xmlns="http://www.w3.org/2000/svg">
<path d="M7 0C4.52149 0 2.5 2.02148 2.5 4.5V13H2.25C1.28906 13 0.5 13.7891 0.5 14.75V15.25H0.601563C0.798828 15.8867 1.33203 16.3789 2 16.4785V16.5C2.83398 16.5 3.5 17.166 3.5 18V20C3.5 23.0527 5.21875 25.707 7.73633 27.0547L6.29297 28.5H5.5C5.32031 28.498 5.15234 28.5918 5.06055 28.748C4.9707 28.9043 4.9707 29.0957 5.06055 29.2519C5.15234 29.4082 5.32031 29.5019 5.5 29.5H6.70703L8.7168 27.4902C9.58594 27.8144 10.5195 28 11.5 28H20.5C21.4805 28 22.4141 27.8144 23.2832 27.4902L25.293 29.5H26.5C26.6797 29.5019 26.8477 29.4082 26.9395 29.2519C27.0293 29.0957 27.0293 28.9043 26.9395 28.748C26.8477 28.5918 26.6797 28.498 26.5 28.5H25.707L24.2637 27.0547C26.7813 25.707 28.5 23.0527 28.5 20V18C28.5 17.166 29.166 16.5 30 16.5V16.4785C30.668 16.3789 31.2012 15.8867 31.3984 15.25H31.5V14.75C31.5 13.7891 30.7109 13 29.75 13H3.5V4.5C3.5 2.56055 5.06055 0.999999 7 0.999999H9.51563C9.19727 1.41992 9 1.93555 9 2.5V4H15V2.5C15 1.125 13.875 0 12.5 0H7ZM11.5 0.999999H12.5C13.334 0.999999 14 1.66601 14 2.5V3H10V2.5C10 1.66601 10.666 0.999999 11.5 0.999999ZM10 5C9.72461 5 9.5 5.22461 9.5 5.5C9.5 5.77539 9.72461 6 10 6C10.2754 6 10.5 5.77539 10.5 5.5C10.5 5.22461 10.2754 5 10 5ZM12 5C11.7246 5 11.5 5.22461 11.5 5.5C11.5 5.77539 11.7246 6 12 6C12.2754 6 12.5 5.77539 12.5 5.5C12.5 5.22461 12.2754 5 12 5ZM14 5C13.7246 5 13.5 5.22461 13.5 5.5C13.5 5.77539 13.7246 6 14 6C14.2754 6 14.5 5.77539 14.5 5.5C14.5 5.22461 14.2754 5 14 5ZM10 7C9.72461 7 9.5 7.22461 9.5 7.5C9.5 7.77539 9.72461 8 10 8C10.2754 8 10.5 7.77539 10.5 7.5C10.5 7.22461 10.2754 7 10 7ZM12 7C11.7246 7 11.5 7.22461 11.5 7.5C11.5 7.77539 11.7246 8 12 8C12.2754 8 12.5 7.77539 12.5 7.5C12.5 7.22461 12.2754 7 12 7ZM14 7C13.7246 7 13.5 7.22461 13.5 7.5C13.5 7.77539 13.7246 8 14 8C14.2754 8 14.5 7.77539 14.5 7.5C14.5 7.22461 14.2754 7 14 7ZM10 9C9.72461 9 9.5 9.2246 9.5 9.5C9.5 9.77538 9.72461 9.99999 10 9.99999C10.2754 9.99999 10.5 9.77538 10.5 9.5C10.5 9.2246 10.2754 9 10 9ZM12 9C11.7246 9 11.5 9.2246 11.5 9.5C11.5 9.77538 11.7246 9.99999 12 9.99999C12.2754 9.99999 12.5 9.77538 12.5 9.5C12.5 9.2246 12.2754 9 12 9ZM14 9C13.7246 9 13.5 9.2246 13.5 9.5C13.5 9.77538 13.7246 9.99999 14 9.99999C14.2754 9.99999 14.5 9.77538 14.5 9.5C14.5 9.2246 14.2754 9 14 9ZM10 11C9.72461 11 9.5 11.2246 9.5 11.5C9.5 11.7754 9.72461 12 10 12C10.2754 12 10.5 11.7754 10.5 11.5C10.5 11.2246 10.2754 11 10 11ZM12 11C11.7246 11 11.5 11.2246 11.5 11.5C11.5 11.7754 11.7246 12 12 12C12.2754 12 12.5 11.7754 12.5 11.5C12.5 11.2246 12.2754 11 12 11ZM14 11C13.7246 11 13.5 11.2246 13.5 11.5C13.5 11.7754 13.7246 12 14 12C14.2754 12 14.5 11.7754 14.5 11.5C14.5 11.2246 14.2754 11 14 11ZM2.25 14H29.75C30.1699 14 30.5 14.3301 30.5 14.75C30.5 15.1699 30.1699 15.5 29.75 15.5H28C27.7246 15.5 27.5 15.7246 27.5 16C27.5 16.2754 27.7246 16.5 28 16.5H28.0156C27.6973 16.9199 27.5 17.4355 27.5 18V20C27.5 23.8711 24.3711 27 20.5 27H11.5C7.62891 27 4.5 23.8711 4.5 20V18C4.5 17.4355 4.30273 16.9199 3.98438 16.5C3.99023 16.5 3.99414 16.5 4 16.5C4.27539 16.5 4.5 16.2754 4.5 16C4.5 15.7246 4.27539 15.5 4 15.5C3.99414 15.5 3.98828 15.5 3.98438 15.5H2.25C1.83008 15.5 1.5 15.1699 1.5 14.75C1.5 14.3301 1.83008 14 2.25 14ZM6 15.5C5.72461 15.5 5.5 15.7246 5.5 16C5.5 16.2754 5.72461 16.5 6 16.5C6.27539 16.5 6.5 16.2754 6.5 16C6.5 15.7246 6.27539 15.5 6 15.5ZM8 15.5C7.72461 15.5 7.5 15.7246 7.5 16C7.5 16.2754 7.72461 16.5 8 16.5C8.27539 16.5 8.5 16.2754 8.5 16C8.5 15.7246 8.27539 15.5 8 15.5ZM10 15.5C9.72461 15.5 9.5 15.7246 9.5 16C9.5 16.2754 9.72461 16.5 10 16.5C10.2754 16.5 10.5 16.2754 10.5 16C10.5 15.7246 10.2754 15.5 10 15.5ZM12 15.5C11.7246 15.5 11.5 15.7246 11.5 16C11.5 16.2754 11.7246 16.5 12 16.5C12.2754 16.5 12.5 16.2754 12.5 16C12.5 15.7246 12.2754 15.5 12 15.5ZM14 15.5C13.7246 15.5 13.5 15.7246 13.5 16C13.5 16.2754 13.7246 16.5 14 16.5C14.2754 16.5 14.5 16.2754 14.5 16C14.5 15.7246 14.2754 15.5 14 15.5ZM16 15.5C15.7246 15.5 15.5 15.7246 15.5 16C15.5 16.2754 15.7246 16.5 16 16.5C16.2754 16.5 16.5 16.2754 16.5 16C16.5 15.7246 16.2754 15.5 16 15.5ZM18 15.5C17.7246 15.5 17.5 15.7246 17.5 16C17.5 16.2754 17.7246 16.5 18 16.5C18.2754 16.5 18.5 16.2754 18.5 16C18.5 15.7246 18.2754 15.5 18 15.5ZM20 15.5C19.7246 15.5 19.5 15.7246 19.5 16C19.5 16.2754 19.7246 16.5 20 16.5C20.2754 16.5 20.5 16.2754 20.5 16C20.5 15.7246 20.2754 15.5 20 15.5ZM22 15.5C21.7246 15.5 21.5 15.7246 21.5 16C21.5 16.2754 21.7246 16.5 22 16.5C22.2754 16.5 22.5 16.2754 22.5 16C22.5 15.7246 22.2754 15.5 22 15.5ZM24 15.5C23.7246 15.5 23.5 15.7246 23.5 16C23.5 16.2754 23.7246 16.5 24 16.5C24.2754 16.5 24.5 16.2754 24.5 16C24.5 15.7246 24.2754 15.5 24 15.5ZM26 15.5C25.7246 15.5 25.5 15.7246 25.5 16C25.5 16.2754 25.7246 16.5 26 16.5C26.2754 16.5 26.5 16.2754 26.5 16C26.5 15.7246 26.2754 15.5 26 15.5ZM3.5 28.5C3.22461 28.5 3 28.7246 3 29C3 29.2754 3.22461 29.5 3.5 29.5C3.77539 29.5 4 29.2754 4 29C4 28.7246 3.77539 28.5 3.5 28.5ZM28.5 28.5C28.2246 28.5 28 28.7246 28 29C28 29.2754 28.2246 29.5 28.5 29.5C28.7754 29.5 29 29.2754 29 29C29 28.7246 28.7754 28.5 28.5 28.5Z" fill="#F7B31C"/>
</svg>
