<svg width="32" height="26" viewBox="0 0 32 26" fill="none" xmlns="http://www.w3.org/2000/svg">
<path d="M3.7118 0.519997C2.70147 0.519997 1.86873 1.35274 1.86873 2.36307V11.6936C1.87113 11.732 1.87833 11.7704 1.88793 11.8088C1.88793 11.816 1.88793 11.8208 1.88793 11.828C1.61195 12.2624 1.38636 12.7255 1.21597 13.2295C0.834401 14.355 0.671213 15.6461 0.640015 17.1076V17.722C0.640015 17.7412 0.640015 17.7604 0.640015 17.7796V25.0943H4.94052V22.6369C4.94052 22.1257 5.06531 21.8593 5.2285 21.6961C5.39168 21.5329 5.65807 21.4081 6.16923 21.4081H25.8287C26.3398 21.4081 26.6062 21.5329 26.7694 21.6961C26.9326 21.8593 27.0574 22.1257 27.0574 22.6369V25.0943H31.3579V17.818C31.3603 17.7868 31.3603 17.7532 31.3579 17.722C31.3579 17.5108 31.3627 17.3116 31.3579 17.1076C31.3267 15.6461 31.1635 14.355 30.7819 13.2295C30.6115 12.7303 30.3835 12.2768 30.11 11.8472C30.122 11.7968 30.1292 11.7464 30.1292 11.6936V2.36307C30.1292 1.35274 29.2964 0.519997 28.2861 0.519997H3.7118ZM3.7118 1.74871H28.2861C28.6317 1.74871 28.9004 2.01749 28.9004 2.36307V10.4457C28.7493 10.3185 28.5885 10.1961 28.4205 10.0809C28.0101 9.79775 27.5637 9.53377 27.0574 9.31298V6.66357C27.0574 6.2316 26.7742 5.89562 26.4622 5.68444C26.1502 5.47325 25.7687 5.32686 25.2911 5.20447C24.336 4.95969 22.9945 4.8205 21.221 4.8205C19.4475 4.8205 18.106 4.95969 17.1509 5.20447C16.6853 5.32446 16.3061 5.46125 15.9989 5.66524C15.6918 5.46125 15.3126 5.32446 14.847 5.20447C13.8919 4.95969 12.5504 4.8205 10.7769 4.8205C9.00343 4.8205 7.66193 4.95969 6.70679 5.20447C6.22923 5.32686 5.84765 5.47325 5.53567 5.68444C5.2237 5.89562 4.94052 6.2316 4.94052 6.66357V9.31298C4.43415 9.53377 3.98778 9.79775 3.57741 10.0809C3.40942 10.1961 3.24863 10.3185 3.09744 10.4457V2.36307C3.09744 2.01749 3.36623 1.74871 3.7118 1.74871ZM10.7769 6.04921C12.4856 6.04921 13.7527 6.1932 14.5398 6.39479C14.9334 6.49558 15.2046 6.61797 15.327 6.70197C15.3774 6.73556 15.3798 6.74036 15.3846 6.74036V7.89228C11.3457 7.91868 8.35548 8.22106 6.16923 8.89061V6.74036C6.17403 6.74036 6.17643 6.73556 6.22683 6.70197C6.34922 6.61797 6.6204 6.49558 7.01397 6.39479C7.80112 6.1932 9.06823 6.04921 10.7769 6.04921ZM21.221 6.04921C22.9297 6.04921 24.1968 6.1932 24.9839 6.39479C25.3775 6.49558 25.6487 6.61797 25.7711 6.70197C25.8215 6.73556 25.8239 6.74036 25.8287 6.74036V8.89061C23.6424 8.22106 20.6522 7.91868 16.6133 7.89228V6.74036C16.6181 6.74036 16.6205 6.73556 16.6709 6.70197C16.7933 6.61797 17.0645 6.49558 17.458 6.39479C18.2452 6.1932 19.5123 6.04921 21.221 6.04921ZM15.8838 9.121C15.9486 9.1306 16.0109 9.1306 16.0757 9.121C16.0949 9.121 16.1141 9.121 16.1333 9.121C22.2817 9.1306 25.8335 9.77375 27.7293 11.0793C28.6845 11.7368 29.2628 12.5528 29.63 13.6327C29.9492 14.5734 30.0788 15.7325 30.11 17.1076H1.88793C1.91913 15.7325 2.04872 14.5734 2.36789 13.6327C2.73507 12.5528 3.31343 11.7368 4.26856 11.0793C6.16443 9.77135 9.72338 9.1282 15.8838 9.121ZM1.86873 18.3364H30.1292V23.8656H28.2861V22.6369C28.2861 21.9193 28.1037 21.2642 27.6525 20.813C27.2014 20.3618 26.5462 20.1794 25.8287 20.1794H6.16923C5.45168 20.1794 4.79653 20.3618 4.34536 20.813C3.89419 21.2642 3.7118 21.9193 3.7118 22.6369V23.8656H1.86873V18.3364Z" fill="#F7B31C"/>
</svg>
