<svg width="32" height="32" viewBox="0 0 32 32" fill="none" xmlns="http://www.w3.org/2000/svg">
<path d="M8.50005 0.0812424C8.27009 0.0813268 8.04205 0.100235 7.82193 0.13593H7.82036C6.9768 0.274168 6.15849 0.535161 5.4938 0.901555V0.899992C4.63709 1.37058 3.96609 2.02011 3.26255 2.78124C1.95503 4.19715 1.11827 5.89973 0.868803 7.69999V7.70156C0.832079 7.97056 0.812553 8.24299 0.812553 8.51562C0.812553 13.1019 4.69891 16.8141 9.42193 16.8141C10.3358 16.8141 11.2001 16.6342 12.0313 16.3781C12.0483 16.5762 12.0778 16.7711 12.1219 16.9656C12.1193 16.9797 12.1143 17.0031 12.1157 16.9984L12.1126 17.0078L12.1094 17.0172C11.8098 18.1176 11.3852 18.8803 10.9047 19.3453C10.4243 19.8103 9.89714 20.0219 9.16724 20.0219C8.06169 20.0219 7.45779 19.6136 6.79693 19.1797V19.1781C6.41803 18.9298 6.01934 18.6442 5.45474 18.5312H5.45318C5.21695 18.4846 4.97268 18.4609 4.72662 18.4609C4.06848 18.4609 3.40165 18.6222 2.77193 18.9172C1.52396 19.5003 0.767465 20.785 0.359428 21.8969C0.167783 22.4177 0.0648864 22.9688 0.0656784 23.5141C0.0656784 23.7446 0.0845883 23.9716 0.120366 24.1922V24.1937C0.258603 25.0373 0.519597 25.8572 0.885991 26.5219C1.35653 27.3781 2.00486 28.0483 2.76568 28.7516V28.7531C4.18158 30.0606 5.88417 30.8958 7.68443 31.1453H7.68599C7.955 31.182 8.22899 31.2016 8.50161 31.2016C13.0879 31.2016 16.7985 27.3152 16.7985 22.5922C16.7985 21.6778 16.6189 20.8128 16.3626 19.9812C16.5678 19.9651 16.7679 19.9373 16.9594 19.8953C16.9668 19.8967 16.9862 19.901 16.9829 19.9L16.9922 19.9016L17.0016 19.9047C18.102 20.2043 18.8647 20.6289 19.3297 21.1094C19.7948 21.5898 20.0079 22.117 20.0079 22.8469C20.0079 23.9524 19.598 24.5563 19.1641 25.2172V25.2187C18.9158 25.5976 18.6286 25.9948 18.5157 26.5594V26.5609V26.5625C18.4691 26.7987 18.4469 27.0414 18.4469 27.2875C18.4469 27.9456 18.6082 28.6125 18.9032 29.2422H18.9016C19.4843 30.4904 20.7678 31.2464 21.8797 31.6547C22.4015 31.8469 22.9538 31.9494 23.5 31.9484C23.73 31.9483 23.9565 31.9294 24.1766 31.8937H24.1782C25.0218 31.7555 25.8416 31.4945 26.5063 31.1281C27.3621 30.6576 28.0345 30.009 28.7375 29.2484C30.0451 27.8325 30.8803 26.1299 31.1297 24.3297V24.3281C31.1665 24.0591 31.186 23.7867 31.186 23.5141C31.186 18.9277 27.2996 15.2156 22.5766 15.2156C21.6638 15.2156 20.8006 15.3943 19.9704 15.65C19.9542 15.4467 19.926 15.2465 19.8813 15.0469C19.8818 15.0436 19.8851 15.029 19.8844 15.0312L19.8876 15.0219L19.8891 15.0125C20.1888 13.9121 20.6134 13.1494 21.0938 12.6844C21.5742 12.2193 22.1014 12.0078 22.8313 12.0078C23.9368 12.0078 24.5423 12.4161 25.2032 12.85C25.5821 13.0983 25.9808 13.3855 26.5454 13.4984H26.5469C26.7831 13.5451 27.0259 13.5687 27.2719 13.5687C27.9301 13.5687 28.5984 13.4059 29.2282 13.1109C30.4751 12.5278 31.2311 11.2457 31.6391 10.1344V10.1328C31.8309 9.61149 31.9338 9.0598 31.9329 8.51406C31.9328 8.28409 31.9139 8.05762 31.8782 7.83749V7.83593C31.74 6.99284 31.4802 6.17384 31.1141 5.50937V5.50781C30.6435 4.65154 29.9937 3.9798 29.2329 3.27656C27.817 1.96903 26.1144 1.13384 24.3141 0.884367H24.3125C24.0436 0.847643 23.7711 0.828117 23.4985 0.828117C18.9122 0.828117 15.2001 4.71447 15.2001 9.43749C15.2001 10.3412 15.3766 11.1961 15.6282 12.0187C15.4045 12.0368 15.1885 12.0717 14.9813 12.1203C13.8899 11.8209 13.133 11.3983 12.6704 10.9203C12.2053 10.4399 11.9922 9.91271 11.9922 9.18281C11.9922 8.07726 12.4005 7.47336 12.8344 6.81249L12.836 6.81093C13.0843 6.43204 13.3699 6.03491 13.4829 5.47031V5.46874V5.46718C13.5295 5.23095 13.5532 4.98825 13.5532 4.74218C13.5532 4.08405 13.3919 3.41722 13.0969 2.78749C12.514 1.539 11.231 0.783152 10.1188 0.374992C9.59754 0.183 9.04737 0.0804498 8.50161 0.0812424H8.50005ZM8.50161 1.68124C8.84176 1.68063 9.21863 1.74873 9.56568 1.87656H9.56724C10.3734 2.1724 11.3962 2.92709 11.6469 3.46406V3.46562C11.8511 3.90149 11.9532 4.35071 11.9532 4.74218C11.9532 4.88811 11.9395 5.02923 11.9141 5.15781C11.8843 5.3053 11.7442 5.55705 11.4969 5.93437H11.4985C11.0636 6.5967 10.3922 7.64195 10.3922 9.18281C10.3922 10.2681 10.7842 11.2723 11.5204 12.0328C11.954 12.4808 12.5033 12.8374 13.1344 13.1344C13.09 13.1792 13.0433 13.2219 13.0016 13.2687C12.6386 13.6772 12.3847 14.1513 12.2204 14.6516C11.3666 15.0093 10.4242 15.2141 9.42193 15.2141C5.53215 15.2141 2.41255 12.1981 2.41255 8.51562C2.41255 8.31995 2.4276 8.11803 2.45474 7.91874V7.91718C2.65672 6.46212 3.33265 5.06367 4.43755 3.86718C5.10202 3.14831 5.64402 2.64373 6.26411 2.30312H6.26568V2.30156C6.70944 2.05694 7.39909 1.82708 8.07818 1.71562C8.21275 1.6938 8.35772 1.68124 8.50161 1.68124ZM23.4985 2.42812C23.6942 2.42812 23.8961 2.44161 24.0954 2.46874C25.5511 2.67047 26.9516 3.34784 28.1485 4.45312C28.8663 5.11675 29.3707 5.66016 29.711 6.27968H29.7125V6.28124C29.9574 6.72535 30.1887 7.41571 30.3 8.09531L30.2985 8.09374C30.3203 8.22832 30.3329 8.37172 30.3329 8.51562V8.51718C30.3335 8.85733 30.2654 9.23419 30.1375 9.58124C29.8417 10.3874 29.087 11.4118 28.55 11.6625H28.5485C28.1126 11.8667 27.6634 11.9687 27.2719 11.9687C27.126 11.9687 26.9849 11.9535 26.8563 11.9281C26.709 11.8982 26.4573 11.7589 26.0813 11.5125H26.0797C25.4174 11.0776 24.3714 10.4078 22.8313 10.4078C21.746 10.4078 20.7419 10.7998 19.9813 11.5359C19.5339 11.969 19.1764 12.518 18.8797 13.1484C18.4748 12.7349 17.9583 12.4063 17.3516 12.2094C17.0005 11.3624 16.8001 10.4301 16.8001 9.43749C16.8001 5.54771 19.816 2.42812 23.4985 2.42812ZM16.0001 13.6C16.1847 13.6 16.374 13.6296 16.5797 13.6812L17.0922 13.8094C17.3803 13.9375 17.6109 14.1167 17.8016 14.3312C17.9942 14.5479 18.1425 14.8084 18.2438 15.0922L18.2376 15.1219L18.2969 15.3219C18.3274 15.423 18.3481 15.5188 18.3672 15.6141C18.3853 15.7414 18.4001 15.8702 18.4001 16C18.4001 16.0983 18.3855 16.1951 18.3751 16.2922C18.3637 16.3743 18.361 16.4533 18.3407 16.5406C18.255 16.9652 18.0746 17.3617 17.8016 17.6687C17.5721 17.9269 17.2746 18.1256 16.8985 18.2531L16.8922 18.2516L16.6938 18.3125C16.6361 18.3299 16.5823 18.3393 16.5266 18.3531C16.3637 18.3807 16.1927 18.4 16.0001 18.4C15.7874 18.4 15.5954 18.3818 15.4188 18.3484L15.4157 18.3469L15.3876 18.3406C14.8614 18.2344 14.4845 17.9905 14.1985 17.6687C14.0081 17.4546 13.8622 17.1971 13.761 16.9172L13.7626 16.9078L13.7126 16.7453C13.7013 16.706 13.6908 16.6665 13.6813 16.6266C13.6638 16.5635 13.6504 16.5014 13.6376 16.4406C13.614 16.2959 13.6001 16.1482 13.6001 16C13.6001 15.9175 13.613 15.8364 13.6204 15.7547C13.634 15.6501 13.6375 15.5507 13.6657 15.4375C13.6659 15.4364 13.6654 15.4355 13.6657 15.4344C13.7536 15.0194 13.931 14.6322 14.1985 14.3312C14.4172 14.0852 14.6966 13.8928 15.0469 13.7641L15.1063 13.7766L15.3063 13.7172C15.5529 13.6428 15.7788 13.6 16.0001 13.6ZM22.5766 16.8156C26.4664 16.8156 29.586 19.8316 29.586 23.5141C29.586 23.7102 29.5726 23.9127 29.5454 24.1125C29.3434 25.5677 28.6675 26.966 27.5625 28.1625C26.8981 28.8814 26.3545 29.3859 25.7344 29.7266V29.7281C25.2903 29.9729 24.5984 30.2027 23.9188 30.3141C23.7847 30.3357 23.6419 30.3484 23.4985 30.3484H23.4969C23.1568 30.349 22.7799 30.2809 22.4329 30.1531C21.6267 29.8573 20.6023 29.101 20.3516 28.5641C20.1474 28.1282 20.0469 27.679 20.0469 27.2875C20.0469 27.1421 20.0608 27.0016 20.086 26.8734V26.8719C20.1158 26.7244 20.2543 26.4726 20.5016 26.0953C20.9365 25.433 21.6079 24.3877 21.6079 22.8469C21.6079 21.7616 21.2159 20.7574 20.4797 19.9969C20.0418 19.5445 19.485 19.1845 18.8454 18.8859C18.897 18.8346 18.9505 18.7852 18.9985 18.7312C19.3538 18.3316 19.6071 17.8696 19.7719 17.3812C20.6275 17.0214 21.5712 16.8156 22.5766 16.8156ZM13.1282 18.8594C13.5284 19.2655 14.037 19.5882 14.6329 19.7844C14.993 20.6405 15.1985 21.5863 15.1985 22.5922C15.1985 26.482 12.1841 29.6016 8.50161 29.6016C8.30544 29.6016 8.10297 29.5866 7.90318 29.5594L7.90474 29.5609C6.44911 29.3591 5.04851 28.6818 3.85162 27.5766C3.13275 26.9121 2.62817 26.3701 2.28755 25.75V25.7484C2.04294 25.3047 1.81152 24.615 1.70005 23.9359V23.9344C1.67838 23.8002 1.66568 23.6574 1.66568 23.5141V23.5125C1.66506 23.1723 1.73316 22.7955 1.86099 22.4484V22.4469C2.15683 21.6407 2.91309 20.6179 3.45005 20.3672C3.88593 20.163 4.33515 20.0609 4.72662 20.0609C4.87255 20.0609 5.01367 20.0762 5.14224 20.1016C5.28979 20.1315 5.5418 20.2701 5.9188 20.5172C6.58114 20.9521 7.62639 21.6219 9.16724 21.6219C10.2525 21.6219 11.2567 21.2299 12.0172 20.4937C12.4699 20.0556 12.8295 19.4991 13.1282 18.8594Z" fill="#F7B31C"/>
</svg>
