<svg width="33" height="33" viewBox="0 0 33 33" fill="none" xmlns="http://www.w3.org/2000/svg">
<path d="M6.75 0.5C6.41848 0.5 6.10054 0.631696 5.86612 0.866116C5.6317 1.10054 5.5 1.41848 5.5 1.75C5.5 2.08152 5.6317 2.39946 5.86612 2.63388C6.10054 2.8683 6.41848 3 6.75 3C7.08152 3 7.39946 2.8683 7.63388 2.63388C7.8683 2.39946 8 2.08152 8 1.75C8 1.41848 7.8683 1.10054 7.63388 0.866116C7.39946 0.631696 7.08152 0.5 6.75 0.5ZM10.5 0.5C10.5 3.2575 13.3025 5.5 16.75 5.5C20.1975 5.5 23 3.2575 23 0.5H10.5ZM26.75 0.5C26.4185 0.5 26.1005 0.631696 25.8661 0.866116C25.6317 1.10054 25.5 1.41848 25.5 1.75C25.5 2.08152 25.6317 2.39946 25.8661 2.63388C26.1005 2.8683 26.4185 3 26.75 3C27.0815 3 27.3995 2.8683 27.6339 2.63388C27.8683 2.39946 28 2.08152 28 1.75C28 1.41848 27.8683 1.10054 27.6339 0.866116C27.3995 0.631696 27.0815 0.5 26.75 0.5ZM9.25 5.5C8.91848 5.5 8.60054 5.6317 8.36612 5.86612C8.1317 6.10054 8 6.41848 8 6.75C8 7.08152 8.1317 7.39946 8.36612 7.63388C8.60054 7.8683 8.91848 8 9.25 8C9.58152 8 9.89946 7.8683 10.1339 7.63388C10.3683 7.39946 10.5 7.08152 10.5 6.75C10.5 6.41848 10.3683 6.10054 10.1339 5.86612C9.89946 5.6317 9.58152 5.5 9.25 5.5ZM24.25 5.5C23.9185 5.5 23.6005 5.6317 23.3661 5.86612C23.1317 6.10054 23 6.41848 23 6.75C23 7.08152 23.1317 7.39946 23.3661 7.63388C23.6005 7.8683 23.9185 8 24.25 8C24.5815 8 24.8995 7.8683 25.1339 7.63388C25.3683 7.39946 25.5 7.08152 25.5 6.75C25.5 6.41848 25.3683 6.10054 25.1339 5.86612C24.8995 5.6317 24.5815 5.5 24.25 5.5ZM14.25 8C13.9185 8 13.6005 8.1317 13.3661 8.36612C13.1317 8.60054 13 8.91848 13 9.25C13 9.58152 13.1317 9.89946 13.3661 10.1339C13.6005 10.3683 13.9185 10.5 14.25 10.5C14.5815 10.5 14.8995 10.3683 15.1339 10.1339C15.3683 9.89946 15.5 9.58152 15.5 9.25C15.5 8.91848 15.3683 8.60054 15.1339 8.36612C14.8995 8.1317 14.5815 8 14.25 8ZM19.25 8C18.9185 8 18.6005 8.1317 18.3661 8.36612C18.1317 8.60054 18 8.91848 18 9.25C18 9.58152 18.1317 9.89946 18.3661 10.1339C18.6005 10.3683 18.9185 10.5 19.25 10.5C19.5815 10.5 19.8995 10.3683 20.1339 10.1339C20.3683 9.89946 20.5 9.58152 20.5 9.25C20.5 8.91848 20.3683 8.60054 20.1339 8.36612C19.8995 8.1317 19.5815 8 19.25 8ZM0.5 15.5V18H3V31.75C3.00003 32.0815 3.13174 32.3994 3.36615 32.6338C3.60057 32.8683 3.91849 33 4.25 33H29.25C29.5815 33 29.8994 32.8683 30.1338 32.6338C30.3683 32.3994 30.5 32.0815 30.5 31.75V18H33V15.5H0.5ZM5.5 18H28V30.5H23V25.5H24.25C24.4156 25.5023 24.5801 25.4717 24.7338 25.41C24.8875 25.3482 25.0274 25.2565 25.1454 25.1402C25.2633 25.0239 25.357 24.8853 25.4209 24.7325C25.4849 24.5797 25.5178 24.4157 25.5178 24.25C25.5178 24.0843 25.4849 23.9203 25.4209 23.7675C25.357 23.6147 25.2633 23.4761 25.1454 23.3598C25.0274 23.2435 24.8875 23.1518 24.7338 23.09C24.5801 23.0283 24.4156 22.9977 24.25 23H18V21.75C18.0026 21.5826 17.9716 21.4163 17.9087 21.2611C17.8458 21.1059 17.7524 20.9649 17.634 20.8465C17.5156 20.7281 17.3746 20.6346 17.2194 20.5718C17.0642 20.5089 16.8979 20.4778 16.7305 20.4805C16.5663 20.483 16.4043 20.5179 16.2536 20.5831C16.1029 20.6483 15.9666 20.7425 15.8523 20.8604C15.738 20.9783 15.6481 21.1175 15.5877 21.2702C15.5272 21.4228 15.4974 21.5858 15.5 21.75V23H9.25C9.08436 22.9977 8.91991 23.0283 8.7662 23.09C8.61249 23.1518 8.47258 23.2435 8.35462 23.3598C8.23666 23.4761 8.14299 23.6147 8.07906 23.7675C8.01512 23.9203 7.9822 24.0843 7.9822 24.25C7.9822 24.4157 8.01512 24.5797 8.07906 24.7325C8.14299 24.8853 8.23666 25.0239 8.35462 25.1402C8.47258 25.2565 8.61249 25.3482 8.7662 25.41C8.91991 25.4717 9.08436 25.5023 9.25 25.5H10.5V30.5H5.5V18ZM13 25.5H16.5498C16.684 25.522 16.8209 25.522 16.9551 25.5H20.5V30.5H13V25.5Z" fill="#F7B31C"/>
</svg>
