<svg width="32" height="36" viewBox="0 0 32 36" fill="none" xmlns="http://www.w3.org/2000/svg">
<path d="M22.3016 8.86206C18.7334 5.69265 13.1271 5.56342 9.41724 9.13649C7.92225 10.5763 6.92993 12.468 6.62323 14.4629C6.23975 16.957 6.82517 19.4435 8.27164 21.4644C12.2282 26.9921 11.7262 31.3825 11.7813 31.7083C11.7813 32.8639 12.218 33.9439 13.0111 34.7495C13.8049 35.5559 14.8664 36 16 36C18.3263 36 20.2188 34.1075 20.2188 31.7813C20.267 31.4811 19.7892 26.6618 23.571 21.678C24.8278 20.0216 25.4922 18.0447 25.4922 15.9609C25.4922 13.2506 24.3293 10.6631 22.3016 8.86206ZM16 33.8906C14.8409 33.8906 13.9285 32.9698 13.8924 31.7813H18.1094C18.1094 32.9444 17.1631 33.8906 16 33.8906ZM21.8906 20.4029C19.7802 23.184 18.5194 26.3588 18.1943 29.6719H13.7949C13.4461 26.4845 12.1475 23.2552 9.98698 20.2366C8.86303 18.6664 8.40889 16.7297 8.70814 14.7835C9.22092 11.4486 12.205 8.57757 16.0098 8.57757C20.1344 8.57757 23.3828 11.9449 23.3828 15.9609C23.3828 17.5804 22.8668 19.1164 21.8906 20.4029Z" fill="#F7B31C"/>
<path d="M16 4.35938C16.5825 4.35938 17.0547 3.88716 17.0547 3.30469V1.05469C17.0547 0.472219 16.5825 0 16 0C15.4175 0 14.9453 0.472219 14.9453 1.05469V3.30469C14.9453 3.88716 15.4175 4.35938 16 4.35938Z" fill="#F7B31C"/>
<path d="M27.4879 10.5462L29.3147 9.4915C29.8191 9.20026 29.9919 8.55521 29.7007 8.05079C29.4094 7.5463 28.7644 7.37347 28.26 7.66478L26.4333 8.71946C25.9288 9.0107 25.756 9.65575 26.0472 10.1602C26.3399 10.6671 26.9858 10.8361 27.4879 10.5462Z" fill="#F7B31C"/>
<path d="M4.51205 21.3757L2.68533 22.4304C2.1809 22.7216 2.00808 23.3667 2.29931 23.8711C2.59202 24.3781 3.23798 24.547 3.74002 24.2571L5.56674 23.2024C6.07116 22.9112 6.24399 22.2661 5.95275 21.7617C5.66159 21.2572 5.01647 21.0845 4.51205 21.3757Z" fill="#F7B31C"/>
<path d="M21.8008 5.91364C22.3029 6.20361 22.949 6.0343 23.2415 5.52763L24.2962 3.70091C24.5874 3.19649 24.4146 2.55144 23.9102 2.2602C23.4058 1.96883 22.7606 2.14173 22.4695 2.64622L21.4148 4.47294C21.1236 4.97743 21.2964 5.62241 21.8008 5.91364Z" fill="#F7B31C"/>
<path d="M8.75854 5.52761C9.05125 6.03456 9.69722 6.20353 10.1992 5.91363C10.7037 5.62239 10.8765 4.97734 10.5853 4.47292L9.53058 2.6462C9.23934 2.14178 8.59436 1.96888 8.08987 2.26019C7.58545 2.55142 7.41262 3.19647 7.70385 3.70089L8.75854 5.52761Z" fill="#F7B31C"/>
<path d="M29.3146 22.4304L27.4879 21.3757C26.9834 21.0844 26.3384 21.2573 26.0472 21.7617C25.756 22.2661 25.9288 22.9112 26.4333 23.2024L28.26 24.2571C28.7621 24.5471 29.4082 24.3778 29.7007 23.8711C29.992 23.3667 29.8191 22.7216 29.3146 22.4304Z" fill="#F7B31C"/>
<path d="M5.56673 8.71945L3.74001 7.66476C3.23552 7.37339 2.59054 7.54635 2.29931 8.05078C2.00808 8.5552 2.1809 9.20025 2.68533 9.49148L4.51204 10.5462C5.01414 10.8361 5.66025 10.6668 5.95275 10.1602C6.24405 9.65573 6.07122 9.01069 5.56673 8.71945Z" fill="#F7B31C"/>
<path d="M30.7656 14.9062H28.6562C28.0738 14.9062 27.6016 15.3785 27.6016 15.9609C27.6016 16.5434 28.0738 17.0156 28.6562 17.0156H30.7656C31.3481 17.0156 31.8203 16.5434 31.8203 15.9609C31.8203 15.3785 31.3481 14.9062 30.7656 14.9062Z" fill="#F7B31C"/>
<path d="M4.39844 15.9609C4.39844 15.3785 3.92622 14.9062 3.34375 14.9062H1.23438C0.651906 14.9062 0.179688 15.3785 0.179688 15.9609C0.179688 16.5434 0.651906 17.0156 1.23438 17.0156H3.34375C3.92622 17.0156 4.39844 16.5434 4.39844 15.9609Z" fill="#F7B31C"/>
<path d="M17.3637 15.2152L16 16.5788L14.6364 15.2152C14.2246 14.8033 13.5567 14.8033 13.1449 15.2152C12.733 15.6271 12.733 16.2948 13.1449 16.7067L14.9453 18.5071V22.289C14.9453 22.8715 15.4176 23.3437 16 23.3437C16.5825 23.3437 17.0547 22.8715 17.0547 22.289V18.5071L18.8551 16.7067C19.267 16.2948 19.267 15.6271 18.8551 15.2152C18.4433 14.8032 17.7755 14.8032 17.3637 15.2152Z" fill="#F7B31C"/>
</svg>
