<svg width="21" height="114" viewBox="0 0 21 114" fill="none" xmlns="http://www.w3.org/2000/svg">
<path d="M20.234 105.81C20.234 107.197 19.9307 108.445 19.324 109.554C18.7 110.663 17.8247 111.539 16.698 112.18C15.5713 112.804 14.2713 113.116 12.798 113.116C11.3247 113.116 10.0247 112.795 8.898 112.154C7.77133 111.495 6.90467 110.603 6.298 109.476C5.674 108.349 5.362 107.093 5.362 105.706C5.362 104.319 5.674 103.063 6.298 101.936C6.90467 100.809 7.77133 99.9253 8.898 99.284C10.0247 98.6253 11.3247 98.296 12.798 98.296C14.2713 98.296 15.5713 98.634 16.698 99.31C17.8247 99.9687 18.7 100.87 19.324 102.014C19.9307 103.141 20.234 104.406 20.234 105.81ZM17.062 105.81C17.062 105.151 16.906 104.536 16.594 103.964C16.2647 103.375 15.7793 102.907 15.138 102.56C14.4967 102.213 13.7167 102.04 12.798 102.04C11.4287 102.04 10.38 102.404 9.652 103.132C8.90667 103.843 8.534 104.718 8.534 105.758C8.534 106.798 8.90667 107.673 9.652 108.384C10.38 109.077 11.4287 109.424 12.798 109.424C14.1673 109.424 15.2247 109.086 15.97 108.41C16.698 107.717 17.062 106.85 17.062 105.81ZM5.388 87.6439C5.388 85.9279 5.934 84.5413 7.026 83.4839C8.10067 82.4266 9.60867 81.8979 11.55 81.8979H20L20 85.5379H12.044C10.9 85.5379 10.0247 85.8239 9.418 86.3959C8.794 86.9679 8.482 87.7479 8.482 88.7359C8.482 89.7413 8.794 90.5386 9.418 91.1279C10.0247 91.6999 10.9 91.9859 12.044 91.9859H20V95.6259H5.596V91.9859H7.39C6.766 91.5006 6.28067 90.8853 5.934 90.1399C5.57 89.3773 5.388 88.5453 5.388 87.6439Z" fill="#CF3C27" fill-opacity="0.5"/>
<path d="M5.596 58.4685L20 62.6805V66.6065L9.938 69.2325L20 71.8585V75.8105L5.596 80.0485L5.596 76.3565L16.568 73.8085L5.596 71.0525L5.596 67.2045L16.542 64.5005L5.596 61.9525V58.4685ZM20.234 50.103C20.234 51.4896 19.9307 52.7376 19.324 53.847C18.7 54.9563 17.8247 55.8316 16.698 56.473C15.5713 57.097 14.2713 57.409 12.798 57.409C11.3247 57.409 10.0247 57.0883 8.898 56.447C7.77133 55.7883 6.90467 54.8956 6.298 53.769C5.674 52.6423 5.362 51.3856 5.362 49.999C5.362 48.6123 5.674 47.3556 6.298 46.229C6.90467 45.1023 7.77133 44.2183 8.898 43.577C10.0247 42.9183 11.3247 42.589 12.798 42.589C14.2713 42.589 15.5713 42.927 16.698 43.603C17.8247 44.2616 18.7 45.163 19.324 46.307C19.9307 47.4336 20.234 48.699 20.234 50.103ZM17.062 50.103C17.062 49.4443 16.906 48.829 16.594 48.257C16.2647 47.6676 15.7793 47.1996 15.138 46.853C14.4967 46.5063 13.7167 46.333 12.798 46.333C11.4287 46.333 10.38 46.697 9.652 47.425C8.90667 48.1356 8.534 49.011 8.534 50.051C8.534 51.091 8.90667 51.9663 9.652 52.677C10.38 53.3703 11.4287 53.717 12.798 53.717C14.1673 53.717 15.2247 53.379 15.97 52.703C16.698 52.0096 17.062 51.143 17.062 50.103ZM7.832 36.2789C7.06933 35.8109 6.47133 35.2042 6.038 34.4589C5.60467 33.6962 5.388 32.8296 5.388 31.8589H9.21V32.8209C9.21 33.9649 9.47867 34.8316 10.016 35.4209C10.5533 35.9929 11.4893 36.2789 12.824 36.2789H20V39.9189H5.596L5.596 36.2789H7.832ZM12.746 30.3432C11.29 30.3432 9.99867 30.0572 8.872 29.4852C7.74533 28.8958 6.87867 28.0985 6.272 27.0932C5.66533 26.0878 5.362 24.9698 5.362 23.7392C5.362 22.8032 5.57 21.9105 5.986 21.0612C6.38467 20.2118 6.922 19.5358 7.598 19.0332H0.76L0.76 15.3412H20V19.0332H17.868C18.5787 19.4838 19.1507 20.1165 19.584 20.9312C20.0173 21.7458 20.234 22.6905 20.234 23.7652C20.234 24.9785 19.922 26.0878 19.298 27.0932C18.674 28.0985 17.7987 28.8958 16.672 29.4852C15.528 30.0572 14.2193 30.3432 12.746 30.3432ZM12.798 19.0072C11.914 19.0072 11.16 19.1805 10.536 19.5272C9.89467 19.8738 9.40933 20.3418 9.08 20.9312C8.73333 21.5205 8.56 22.1532 8.56 22.8292C8.56 23.5052 8.72467 24.1292 9.054 24.7012C9.38333 25.2732 9.86867 25.7412 10.51 26.1052C11.134 26.4518 11.8793 26.6252 12.746 26.6252C13.6127 26.6252 14.3753 26.4518 15.034 26.1052C15.6753 25.7412 16.1693 25.2732 16.516 24.7012C16.8627 24.1118 17.036 23.4878 17.036 22.8292C17.036 22.1532 16.8713 21.5205 16.542 20.9312C16.1953 20.3418 15.71 19.8738 15.086 19.5272C14.4447 19.1805 13.682 19.0072 12.798 19.0072ZM20.234 6.27408C20.234 7.45274 20.026 8.51008 19.61 9.44608C19.1767 10.3821 18.596 11.1274 17.868 11.6821C17.14 12.2194 16.334 12.5141 15.45 12.5661V8.90008C16.0047 8.83074 16.464 8.56208 16.828 8.09408C17.192 7.60874 17.374 7.01074 17.374 6.30008C17.374 5.60674 17.2353 5.06941 16.958 4.68808C16.6807 4.28941 16.3253 4.09008 15.892 4.09008C15.424 4.09008 15.0773 4.33274 14.852 4.81808C14.6093 5.28608 14.3493 6.04008 14.072 7.08008C13.812 8.15474 13.5433 9.03874 13.266 9.73208C12.9887 10.4081 12.564 10.9974 11.992 11.5001C11.42 11.9854 10.6487 12.2281 9.678 12.2281C8.88067 12.2281 8.15267 12.0027 7.494 11.5521C6.83533 11.0841 6.31533 10.4254 5.934 9.57608C5.55267 8.70941 5.362 7.69541 5.362 6.53408C5.362 4.81808 5.79533 3.44874 6.662 2.42608C7.51133 1.40341 8.664 0.840077 10.12 0.736078V4.22008C9.548 4.27208 9.09733 4.51474 8.768 4.94808C8.42133 5.36408 8.248 5.92741 8.248 6.63808C8.248 7.29674 8.36933 7.80808 8.612 8.17208C8.85467 8.51874 9.19267 8.69208 9.626 8.69208C10.1113 8.69208 10.484 8.44941 10.744 7.96408C10.9867 7.47874 11.238 6.72474 11.498 5.70208C11.758 4.66208 12.0267 3.80408 12.304 3.12808C12.5813 2.45208 13.0147 1.87141 13.604 1.38608C14.176 0.883411 14.9387 0.623411 15.892 0.606078C16.724 0.606078 17.4693 0.840078 18.128 1.30808C18.7867 1.75874 19.3067 2.41741 19.688 3.28408C20.052 4.13341 20.234 5.13008 20.234 6.27408Z" fill="#565656" fill-opacity="0.5"/>
</svg>
