<svg width="25" height="25" viewBox="0 0 25 25" fill="none" xmlns="http://www.w3.org/2000/svg">
<path d="M11.973 0.00748217C11.4691 0.0699822 11.0941 0.49967 11.098 1.00748V3.00748C11.0941 3.36686 11.2816 3.70279 11.5941 3.88639C11.9066 4.06608 12.2894 4.06608 12.6019 3.88639C12.9144 3.70279 13.1019 3.36686 13.098 3.00748V1.00748C13.1019 0.71842 12.9769 0.444982 12.7621 0.253576C12.5473 0.0621702 12.2582 -0.0276738 11.973 0.00748217ZM4.09804 3.19498C3.72304 3.26139 3.42226 3.53483 3.31679 3.89811C3.21132 4.2653 3.32069 4.65592 3.59804 4.91373L5.00429 6.31998C5.24647 6.61686 5.63319 6.75358 6.00819 6.66764C6.37929 6.5817 6.67226 6.28873 6.75819 5.91764C6.84413 5.54264 6.70741 5.15592 6.41054 4.91373L5.00429 3.50748C4.81679 3.30826 4.55897 3.19889 4.28554 3.19498C4.25429 3.19498 4.22304 3.19498 4.19179 3.19498C4.16054 3.19498 4.12929 3.19498 4.09804 3.19498ZM19.7855 3.19498C19.559 3.22623 19.348 3.33951 19.1918 3.50748L17.7855 4.91373C17.4887 5.15592 17.3519 5.54264 17.4379 5.91764C17.5238 6.28873 17.8168 6.5817 18.1879 6.66764C18.5629 6.75358 18.9496 6.61686 19.1918 6.31998L20.598 4.91373C20.8949 4.62858 20.9848 4.18717 20.8246 3.80826C20.6684 3.42936 20.2894 3.18717 19.8793 3.19498C19.848 3.19498 19.8168 3.19498 19.7855 3.19498ZM12.098 5.00748C8.25429 5.00748 5.09804 8.16373 5.09804 12.0075C5.09804 15.8512 8.25429 19.0075 12.098 19.0075C15.9418 19.0075 19.098 15.8512 19.098 12.0075C19.098 8.16373 15.9418 5.00748 12.098 5.00748ZM12.098 7.00748C14.8519 7.00748 17.098 9.25358 17.098 12.0075C17.098 14.7614 14.8519 17.0075 12.098 17.0075C9.34413 17.0075 7.09804 14.7614 7.09804 12.0075C7.09804 9.25358 9.34413 7.00748 12.098 7.00748ZM0.910537 11.0075C0.359756 11.0583 -0.0464941 11.5505 0.0042869 12.1012C0.0550681 12.652 0.547256 13.0583 1.09804 13.0075H3.09804C3.45741 13.0114 3.79335 12.8239 3.97694 12.5114C4.15663 12.1989 4.15663 11.8161 3.97694 11.5036C3.79335 11.1911 3.45741 11.0036 3.09804 11.0075H1.09804C1.06679 11.0075 1.03554 11.0075 1.00429 11.0075C0.973037 11.0075 0.941787 11.0075 0.910537 11.0075ZM20.9105 11.0075C20.3598 11.0583 19.9535 11.5505 20.0043 12.1012C20.0551 12.652 20.5473 13.0583 21.098 13.0075H23.098C23.4574 13.0114 23.7934 12.8239 23.9769 12.5114C24.1566 12.1989 24.1566 11.8161 23.9769 11.5036C23.7934 11.1911 23.4574 11.0036 23.098 11.0075H21.098C21.0668 11.0075 21.0355 11.0075 21.0043 11.0075C20.973 11.0075 20.9418 11.0075 20.9105 11.0075ZM5.56679 17.4137C5.34804 17.4528 5.15272 17.5622 5.00429 17.7262L3.59804 19.1012C3.1996 19.488 3.19569 20.1247 3.58241 20.5231C3.96913 20.9215 4.60585 20.9255 5.00429 20.5387L6.41054 19.1325C6.73476 18.8317 6.82069 18.3551 6.62538 17.9606C6.43398 17.5622 6.00038 17.3434 5.56679 17.4137ZM18.2855 17.4137C17.9105 17.4801 17.6098 17.7536 17.5043 18.1169C17.3988 18.484 17.5082 18.8747 17.7855 19.1325L19.1918 20.5387C19.5902 20.9255 20.2269 20.9215 20.6137 20.5231C21.0004 20.1247 20.9965 19.488 20.598 19.1012L19.1918 17.7262C18.9848 17.5036 18.684 17.3903 18.3793 17.4137C18.348 17.4137 18.3168 17.4137 18.2855 17.4137ZM11.973 20.0075C11.4691 20.07 11.0941 20.4997 11.098 21.0075V23.0075C11.0941 23.3669 11.2816 23.7028 11.5941 23.8864C11.9066 24.0661 12.2894 24.0661 12.6019 23.8864C12.9144 23.7028 13.1019 23.3669 13.098 23.0075V21.0075C13.1019 20.7184 12.9769 20.445 12.7621 20.2536C12.5473 20.0622 12.2582 19.9723 11.973 20.0075Z" fill="#353535"/>
</svg>
