<svg width="38" height="33" viewBox="0 0 38 33" fill="none" xmlns="http://www.w3.org/2000/svg">
<path d="M29.498 13.2535C30.0421 10.3051 27.7621 7.52742 24.4054 7.04946C21.0486 6.5715 17.8864 8.5742 17.3422 11.5226C16.7981 14.471 19.0781 17.2487 22.4348 17.7266C25.7915 18.2046 28.9538 16.2019 29.498 13.2535Z" fill="#FFE07D"/>
<path d="M23.4257 6.97968C23.1355 6.97968 22.8504 6.99859 22.5708 7.03276C25.5669 7.39848 27.8738 9.6563 27.8738 12.3886C27.8738 15.1209 25.5669 17.3787 22.5708 17.7444C22.8503 17.7785 23.1354 17.7975 23.4257 17.7975C26.8267 17.7975 29.5837 15.3758 29.5837 12.3886C29.5837 9.40131 26.8267 6.97968 23.4257 6.97968Z" fill="#FFD064"/>
<path d="M23.4241 5.30653C23.1161 5.30653 22.8665 5.08726 22.8665 4.81676V0.489706C22.8665 0.219213 23.116 0 23.4241 0C23.7321 0 23.9816 0.219277 23.9816 0.489706V4.81683C23.9816 5.08726 23.732 5.30653 23.4241 5.30653Z" fill="#FFE07D"/>
<path d="M36.9715 12.8783H32.0451C31.7372 12.8783 31.4875 12.6591 31.4875 12.3886C31.4875 12.1181 31.7371 11.8989 32.0451 11.8989H36.9715C37.2795 11.8989 37.529 12.1181 37.529 12.3886C37.529 12.6591 37.2795 12.8783 36.9715 12.8783Z" fill="#FFE07D"/>
<path d="M14.803 12.8783H9.87661C9.56866 12.8783 9.31909 12.6591 9.31909 12.3886C9.31909 12.1181 9.56866 11.8989 9.87661 11.8989H14.803C15.1109 11.8989 15.3605 12.1181 15.3605 12.3886C15.3606 12.6591 15.1109 12.8783 14.803 12.8783Z" fill="#FFE07D"/>
<path d="M29.5202 7.52381C29.3776 7.52381 29.2349 7.476 29.1259 7.38039C28.9082 7.18917 28.9082 6.87904 29.1259 6.68782L32.6094 3.6281C32.8271 3.43687 33.1801 3.43687 33.3979 3.6281C33.6156 3.81932 33.6156 4.12945 33.3979 4.32068L29.9145 7.38039C29.8056 7.47594 29.6629 7.52381 29.5202 7.52381Z" fill="#FFE07D"/>
<path d="M33.0036 21.2926C32.8609 21.2926 32.7182 21.2448 32.6094 21.1492L29.1259 18.0894C28.9082 17.8982 28.9082 17.588 29.1259 17.3968C29.3438 17.2055 29.6968 17.2055 29.9145 17.3968L33.3979 20.4566C33.6156 20.6478 33.6156 20.9579 33.3979 21.1492C33.289 21.2447 33.1463 21.2926 33.0036 21.2926Z" fill="#FFE07D"/>
<path d="M17.3281 7.52381C17.1855 7.52381 17.0427 7.476 16.9338 7.38039L13.4504 4.32068C13.2327 4.12945 13.2327 3.81932 13.4504 3.6281C13.6682 3.43687 14.0212 3.43687 14.2389 3.6281L17.7224 6.68782C17.9401 6.87904 17.9401 7.18917 17.7224 7.38039C17.6135 7.47594 17.4708 7.52381 17.3281 7.52381Z" fill="#FFE07D"/>
<path d="M20.1251 5.88244C19.9063 5.88244 19.6987 5.76856 19.6098 5.57997L18.6671 3.58113C18.5492 3.33122 18.6844 3.04477 18.9689 2.94125C19.2533 2.83766 19.5795 2.95643 19.6974 3.20627L20.64 5.20512C20.7578 5.45502 20.6228 5.74147 20.3383 5.845C20.2685 5.87041 20.1962 5.88244 20.1251 5.88244Z" fill="#FFF0AF"/>
<path d="M15.4591 9.98057C15.388 9.98057 15.3158 9.96854 15.246 9.94319L12.9703 9.11524C12.6858 9.01171 12.5507 8.72526 12.6686 8.47536C12.7865 8.22545 13.1127 8.10681 13.3971 8.21033L15.6727 9.03828C15.9572 9.14181 16.0923 9.42826 15.9745 9.67816C15.8855 9.86675 15.6779 9.98057 15.4591 9.98057Z" fill="#FFF0AF"/>
<path d="M33.6644 16.6042C33.5933 16.6042 33.5211 16.5922 33.4513 16.5669L31.1756 15.7389C30.8911 15.6354 30.756 15.3489 30.8739 15.099C30.9918 14.8491 31.318 14.7306 31.6023 14.834L33.878 15.6619C34.1625 15.7655 34.2975 16.052 34.1797 16.3018C34.0908 16.4904 33.8832 16.6042 33.6644 16.6042Z" fill="#FFF0AF"/>
<path d="M31.3892 9.98059C31.1704 9.98059 30.9628 9.86671 30.8739 9.67812C30.756 9.42828 30.8911 9.14177 31.1756 9.03824L33.4513 8.21029C33.7358 8.1067 34.0619 8.22548 34.1797 8.47532C34.2976 8.72515 34.1625 9.01167 33.878 9.1152L31.6023 9.94315C31.5327 9.96863 31.4604 9.98059 31.3892 9.98059Z" fill="#FFF0AF"/>
<path d="M26.7231 5.88264C26.6519 5.88264 26.5797 5.87061 26.5099 5.84526C26.2254 5.74173 26.0902 5.45528 26.2082 5.20538L27.1508 3.20653C27.2687 2.95663 27.595 2.83805 27.8793 2.94151C28.1638 3.04503 28.2989 3.33148 28.181 3.58139L27.2383 5.58017C27.1494 5.76875 26.9419 5.88264 26.7231 5.88264Z" fill="#FFF0AF"/>
<path d="M32.0211 24.2881H32.0194C31.9287 24.2881 31.8506 24.2345 31.8252 24.1579C31.2284 22.358 29.3365 21.0427 27.0948 21.0427C26.2565 21.0427 25.4677 21.2271 24.7769 21.5518C24.5062 21.679 24.1701 21.6125 23.9979 21.3892C23.3338 20.5274 22.2108 19.961 20.9369 19.961C20.639 19.961 20.3493 19.9921 20.0719 20.0507C19.7714 20.1142 19.461 19.9724 19.3639 19.7145C18.4717 17.3443 15.9292 15.6339 12.9316 15.6339C9.19061 15.6339 6.1579 18.2977 6.1579 21.5837C6.1579 21.6583 6.1601 21.7324 6.16361 21.8062C6.16713 21.8793 6.13981 21.951 6.0886 22.0086L6.08333 22.0146C6.01916 22.0868 5.92203 22.1295 5.81786 22.1344C2.5402 22.2913 -0.0557859 24.6979 0.000911284 27.6275C0.0581945 30.589 2.86309 32.9423 6.23525 32.9423H31.9478C34.6553 32.9423 36.912 31.0506 36.9472 28.6727C36.9827 26.2566 34.7636 24.2881 32.0211 24.2881Z" fill="#ECF4FF"/>
<path d="M32.0211 24.2881H32.0194C31.9287 24.2881 31.8506 24.2345 31.8252 24.1579C31.2284 22.358 29.3365 21.0427 27.0948 21.0427C26.2565 21.0427 25.4677 21.2271 24.7769 21.5518C24.5062 21.679 24.1701 21.6125 23.9979 21.3892C23.3338 20.5274 22.2108 19.961 20.9369 19.961C20.639 19.961 20.3493 19.9921 20.0719 20.0507C19.7714 20.1142 19.461 19.9724 19.3639 19.7145C18.4717 17.3443 15.9292 15.6339 12.9316 15.6339C9.19061 15.6339 6.1579 18.2977 6.1579 21.5837C6.1579 21.6583 6.1601 21.7324 6.16361 21.8062C6.16713 21.8793 6.13981 21.951 6.0886 22.0086L6.08333 22.0146C6.01916 22.0868 5.92203 22.1295 5.81786 22.1344C2.5402 22.2913 -0.0557859 24.6979 0.000911284 27.6275C0.0581945 30.589 2.86309 32.9423 6.23525 32.9423H31.9478C34.6553 32.9423 36.912 31.0506 36.9472 28.6727C36.9827 26.2566 34.7636 24.2881 32.0211 24.2881Z" fill="#ECF4FF"/>
<path d="M32.0212 24.2881H32.0195C31.9287 24.2881 31.8506 24.2345 31.8252 24.158C31.2285 22.3581 29.3366 21.0428 27.0948 21.0428C26.8034 21.0428 26.518 21.0656 26.2405 21.1083C28.0972 21.3939 29.5964 22.5923 30.1154 24.158C30.1407 24.2345 30.2189 24.2881 30.3096 24.2881H30.3113C33.0538 24.2881 35.2729 26.2565 35.2372 28.6727C35.2022 31.0507 32.9453 32.9424 30.2379 32.9424H31.9477C34.6552 32.9424 36.9119 31.0507 36.9471 28.6727C36.9828 26.2566 34.7637 24.2881 32.0212 24.2881Z" fill="#DAEAFF"/>
<path d="M11.7582 27.5335C11.7582 27.804 12.0078 28.0233 12.3157 28.0233C12.6236 28.0233 12.8732 27.804 12.8732 27.5335C12.8732 24.1844 9.91515 21.4308 6.17343 21.1824C6.1634 21.3151 6.15776 21.4488 6.15776 21.5837C6.15776 21.6583 6.15995 21.7324 6.16347 21.8062C6.16699 21.8793 6.13966 21.951 6.08846 22.0086L6.08319 22.0146C6.01902 22.0868 5.92188 22.1295 5.81772 22.1344C5.76827 22.1368 5.71956 22.1413 5.67041 22.1447C9.03166 22.1678 11.7582 24.5758 11.7582 27.5335Z" fill="#DDEAFB"/>
<path d="M20.0103 20.0607C19.7299 20.0942 19.4542 19.9548 19.3637 19.7146C19.3077 19.5659 19.2452 19.4198 19.1766 19.2765C17.1174 19.9154 15.6375 21.6414 15.6375 23.6661C15.6375 23.9366 15.8871 24.1559 16.195 24.1559C16.5029 24.1559 16.7525 23.9367 16.7525 23.6661C16.7525 21.9193 18.1476 20.439 20.0102 20.0634V20.0607H20.0103Z" fill="#DDEAFB"/>
<path d="M27.6522 28.8601C27.6522 28.5896 27.4026 28.3704 27.0947 28.3704C26.7868 28.3704 26.5371 28.5896 26.5371 28.8601C26.5371 30.5342 27.4678 32.0204 28.898 32.9424H31.9476C32.0073 32.9424 32.0665 32.9403 32.1257 32.9385C29.6434 32.8576 27.6522 31.0598 27.6522 28.8601Z" fill="#DDEAFB"/>
</svg>
