<?xml version="1.0" encoding="utf-8"?>
<!-- Generator: Adobe Illustrator 26.0.1, SVG Export Plug-In . SVG Version: 6.00 Build 0)  -->
<svg version="1.1" id="Layer_1" xmlns="http://www.w3.org/2000/svg" xmlns:xlink="http://www.w3.org/1999/xlink" x="0px" y="0px"
	 viewBox="0 0 384 384" style="enable-background:new 0 0 384 384;" xml:space="preserve">
<style type="text/css">
	.st0{display:none;fill:#FFFFFF;}
</style>
<g>
	<path d="M0,193.17c1.04-2.22,1.87-4.57,3.16-6.62c4.3-6.85,10.6-10.43,18.69-10.51c10.73-0.11,21.46-0.06,32.19-0.03
		c12.42,0.04,21.02,7.42,22.95,19.66c0.09,0.59,0.16,1.19,0.28,2.09c4.47,0,8.82,0.1,13.15-0.09c0.81-0.03,1.86-1.04,2.3-1.86
		c6.11-11.46,12.49-16.42,25.65-19.6c-0.53-1.13-1.01-2.22-1.53-3.28c-8.16-16.62,2.71-36.07,21.13-37.5
		c5.71-0.44,11.47-0.18,17.21-0.23c1.35-0.01,2.7,0,4.31,0c0-5.19,0-10.01,0-15.47c-4.71,0-9.51,0.1-14.3-0.02
		c-9.44-0.23-17.21-4.01-22.7-11.73c-6.38-8.97-7.36-18.75-2.53-28.63c4.73-9.69,12.71-15.3,23.65-15.75
		c9.09-0.37,18.21-0.15,27.32-0.19c1.33-0.01,2.67,0,4.34,0c0-3.32-0.03-6.17,0-9.01c0.1-9.45,6.96-16.72,15.93-16.91
		c8.96-0.19,16.14,6.72,16.69,16.18c0.15,2.61-0.01,5.24,0.1,7.86c0.03,0.6,0.6,1.18,0.92,1.77c0.56-0.5,1.42-0.89,1.64-1.51
		c0.7-1.99,1.06-4.1,1.72-6.1c6.44-19.44,24.72-33.02,45.24-33.13c32.69-0.17,65.38-0.13,98.07-0.01
		c14.92,0.05,27.44,12.39,27.73,26.9c0.31,15.84-10.97,28.42-26.39,29.2c-5.6,0.28-11.23,0.21-16.84,0.15
		c-4.22-0.05-6.93-2.58-7.01-6.22c-0.07-3.11,2.95-5.45,7.17-5.48c4.87-0.04,9.73,0.03,14.6-0.02c9.19-0.09,16.23-6.85,16.87-16.16
		c0.55-8.06-5.83-15.32-14.61-16.55c-1.35-0.19-2.73-0.32-4.09-0.32c-30.94-0.02-61.89-0.08-92.83,0.01
		c-17.31,0.05-30.57,8.79-36.26,23.81c-1.17,3.09-1.73,6.47-2.2,9.76c-0.79,5.52-2.69,7.38-8.28,7.38
		c-22.71,0.01-45.42-0.02-68.13,0.03c-7.33,0.01-13.34,4.36-15.68,11.11c-3.46,10.02,3.88,21.33,14.44,21.41
		c25.95,0.2,51.91,0.26,77.85-0.12c14.55-0.22,29.33-14.5,31.6-29.45c1.65-10.91,1.65-10.91,12.55-10.91
		c16.6,0,33.19-0.11,49.78,0.15c2.08,0.03,4.76,1.62,5.99,3.33c0.85,1.19,0.37,4.45-0.74,5.65c-1.38,1.49-4.02,2.46-6.13,2.51
		c-10.97,0.24-21.96,0.11-32.94,0.11c-4.49,0-8.99,0.08-13.47-0.03c-2.19-0.05-3.11,0.5-3.74,2.92
		c-5.28,20.4-18.31,32.89-38.97,37.19c-2.06,0.43-2.71,1.1-2.66,3.09c0.1,4.22,0.03,8.45,0.03,13.22c6.11,0,11.97-0.36,17.76,0.11
		c4.63,0.38,9.58,0.93,13.7,2.86c12.78,5.96,17.88,21.66,11.77,34.4c-0.53,1.11-1.1,2.19-1.82,3.6c1.49,0.39,2.75,0.7,4,1.05
		c9.82,2.73,16.97,8.72,21.33,17.91c0.95,1.99,2.01,2.79,4.21,2.69c3.84-0.17,7.7-0.05,11.75-0.05c0.24-1.7,0.33-3.16,0.65-4.57
		c2.32-10.08,10.89-17.06,21.28-17.16c10.85-0.1,21.71-0.07,32.57-0.02c13.45,0.06,22.8,9.4,22.82,22.89
		c0.04,34.2,0.01,68.39,0.01,102.59c0,12.11,0.03,24.21-0.01,36.32c-0.05,13.72-9.35,23.01-23.04,23.05
		c-9.48,0.02-18.97,0.01-28.45,0.01c-15.81,0-23.19-6.09-25.98-21.73c-4.27,0-8.61-0.09-12.94,0.08c-0.83,0.03-1.96,0.96-2.37,1.77
		c-6.89,13.91-18.19,20.01-33.53,19.93c-33.19-0.18-66.38-0.05-99.57-0.06c-1.12,0-2.26,0.08-3.36-0.07
		c-3.14-0.43-5.24-2.88-4.99-5.94c0.26-3.17,2.08-4.97,5.28-5.23c1.24-0.1,2.49-0.05,3.74-0.05c33.56,0,67.13,0.02,100.69-0.01
		c11.16-0.01,19.67-6.21,22.31-16.32c0.65-2.49,0.78-5.18,0.78-7.78c0.08-37.81,0.11-75.63,0.12-113.44
		c0-15.94-8.86-24.76-24.78-24.76c-43.8-0.01-87.59-0.01-131.39,0c-15.64,0-24.63,8.97-24.62,24.57
		c0.01,37.81,0.02,75.63,0.04,113.44c0.01,15.19,9.04,24.27,24.13,24.31c2.25,0,4.5-0.06,6.74,0.04c3.24,0.14,5.54,2.34,5.69,5.27
		c0.15,2.96-1.99,5.45-5.09,5.93c-17.6,2.69-31.72-4.33-39.91-19.75c-0.44-0.82-1.5-1.81-2.31-1.84c-4.34-0.18-8.69-0.09-13.15-0.09
		c-0.6,5.87-2.34,10.96-6.38,15.04c-4.34,4.38-9.59,6.65-15.74,6.67c-10.86,0.05-21.71,0.04-32.57,0.01
		c-10.52-0.03-18.37-5.69-21.77-15.6c-0.19-0.55-0.54-1.04-0.82-1.56C0,293.52,0,243.35,0,193.17z M11.22,268.2
		c0.01,0,0.02,0,0.03,0c0,22.96-0.01,45.92,0,68.88c0,8.35,4.05,12.45,12.34,12.48c9.86,0.04,19.71,0.03,29.57,0
		c8.53-0.02,12.61-4.1,12.61-12.64c0.03-45.67,0.04-91.35,0.04-137.02c0-8.51-4.12-12.62-12.62-12.64c-9.73-0.03-19.46-0.02-29.2,0
		c-8.81,0.02-12.77,4-12.77,12.81C11.22,222.78,11.22,245.49,11.22,268.2z M317.42,268.44c0.01,0,0.02,0,0.03,0
		c0,22.96-0.01,45.92,0,68.88c0,8.13,4.03,12.21,12.14,12.24c9.98,0.05,19.96,0.04,29.94,0c8.13-0.03,12.36-4.1,12.37-12.13
		c0.06-46.05,0.08-92.09,0.05-138.14c0-7.78-4.31-11.98-12.12-12.03c-10.11-0.06-20.21-0.05-30.32,0
		c-8.06,0.04-12.1,4.18-12.1,12.29C317.41,222.52,317.42,245.48,317.42,268.44z M77.33,209.32c0,39.61,0,78.84,0,118.17
		c4.26,0,8.28,0,12.31,0c0-39.52,0-78.75,0-118.17C85.48,209.32,81.55,209.32,77.33,209.32z M293.55,209.32
		c0,39.61,0,78.83,0,118.17c4.3,0,8.33,0,12.37,0c0-39.52,0-78.74,0-118.17C301.75,209.32,297.82,209.32,293.55,209.32z
		 M211.76,120.02c-13.64,0-26.89,0-40.15,0c0,5.15,0,10.04,0,15c13.56,0,26.8,0,40.15,0C211.76,129.92,211.76,125.1,211.76,120.02z
		 M196.33,63.32c0-3.56,0.09-6.76-0.03-9.95c-0.11-2.82-2.04-4.69-4.53-4.33c-1.78,0.26-4.38,2.11-4.72,3.66
		c-0.72,3.36-0.22,6.99-0.22,10.62C190.08,63.32,192.9,63.32,196.33,63.32z"/>
	<path class="st0" d="M11.22,268.2c0-22.71-0.01-45.42,0-68.14c0-8.81,3.96-12.79,12.77-12.81c9.73-0.02,19.46-0.03,29.2,0
		c8.51,0.03,12.62,4.14,12.62,12.64c0,45.67-0.01,91.35-0.04,137.02c0,8.55-4.09,12.62-12.61,12.64c-9.86,0.03-19.71,0.03-29.57,0
		c-8.29-0.03-12.34-4.13-12.34-12.48c-0.01-22.96,0-45.92,0-68.88C11.24,268.2,11.23,268.2,11.22,268.2z"/>
	<path class="st0" d="M317.42,268.44c0-22.96-0.01-45.92,0-68.88c0-8.11,4.05-12.25,12.1-12.29c10.11-0.05,20.21-0.06,30.32,0
		c7.8,0.04,12.11,4.25,12.12,12.03c0.03,46.05,0.01,92.09-0.05,138.14c-0.01,8.03-4.24,12.1-12.37,12.13
		c-9.98,0.04-19.96,0.04-29.94,0c-8.12-0.04-12.14-4.12-12.14-12.24c-0.01-22.96,0-45.92,0-68.88
		C317.44,268.44,317.43,268.44,317.42,268.44z"/>
	<path class="st0" d="M77.33,209.32c4.22,0,8.15,0,12.31,0c0,39.42,0,78.65,0,118.17c-4.03,0-8.05,0-12.31,0
		C77.33,288.15,77.33,248.93,77.33,209.32z"/>
	<path class="st0" d="M293.55,209.32c4.27,0,8.2,0,12.37,0c0,39.42,0,78.65,0,118.17c-4.04,0-8.07,0-12.37,0
		C293.55,288.15,293.55,248.93,293.55,209.32z"/>
	<path class="st0" d="M211.76,120.02c0,5.08,0,9.9,0,15c-13.35,0-26.59,0-40.15,0c0-4.97,0-9.85,0-15
		C184.86,120.02,198.11,120.02,211.76,120.02z"/>
	<path class="st0" d="M196.33,63.32c-3.43,0-6.25,0-9.49,0c0-3.63-0.5-7.26,0.22-10.62c0.33-1.55,2.93-3.4,4.72-3.66
		c2.49-0.36,4.42,1.51,4.53,4.33C196.42,56.57,196.33,59.77,196.33,63.32z"/>
</g>
</svg>
